# File created by Blade
# Date/Time:  Thu Jan 22 16:36:34 2015
#---------------------------------------------------------
:version 1.10
:name HOM
:units
  mass 1.0
  length 1.000000
  angle deg
:documentation
     Acclaim Skeleton File
:root
   axis xyz
   order TX TY TZ RX RY RZ
   position 0.000000 0.000000 0.000000
   orientation 0 0 0
:bonedata
   begin
      id 1
      name RightUpLeg_dum
      direction -1.000000 0.000000 0.000000
      length 3.766986
      axis 0.0 0.0 0.0 xyz
   end
   begin
      id 2
      name LeftUpLeg_dum
      direction 1.000000 0.000000 0.000000
      length 3.766986
      axis 0.0 0.0 0.0 xyz
   end
   begin
      id 3
      name Spine_dum
      direction 0.000000 1.000000 0.000000
      length 7.779697
      axis 0.0 0.0 0.0 xyz
   end
   begin
      id 4
      name RightUpLeg
      direction 0.000000 -1.000000 0.000000
      length 18.017682
      axis 0.0 0.0 0.0 xyz
      dof rx ry rz
   end
   begin
      id 5
      name RightLeg
      direction 0.000000 -1.000000 0.000000
      length 16.881075
      axis 0.0 0.0 0.0 xyz
      dof rx ry rz
   end
   begin
      id 6
      name RightFoot
      direction 0.000000 -0.258819 0.965926
      length 5.770812
      axis 15.0 0.0 0.0 xyz
      dof rx ry rz
   end
   begin
      id 7
      name RightToeBase
      direction 0.000000 0.000000 1.000000
      length 2.952750
      axis 0.0 0.0 0.0 xyz
      dof rx ry rz
   end
   begin
      id 8
      name LeftUpLeg
      direction 0.000000 -1.000000 0.000000
      length 18.017682
      axis 0.0 0.0 0.0 xyz
      dof rx ry rz
   end
   begin
      id 9
      name LeftLeg
      direction 0.000000 -1.000000 0.000000
      length 16.881075
      axis 0.0 0.0 0.0 xyz
      dof rx ry rz
   end
   begin
      id 10
      name LeftFoot
      direction 0.000000 -0.258819 0.965926
      length 5.770812
      axis 15.0 0.0 0.0 xyz
      dof rx ry rz
   end
   begin
      id 11
      name LeftToeBase
      direction 0.000000 0.000000 1.000000
      length 2.952750
      axis 0.0 0.0 0.0 xyz
      dof rx ry rz
   end
   begin
      id 12
      name Spine
      direction 0.000000 1.000000 0.000000
      length 0.000000
      axis 0.0 0.0 0.0 xyz
      dof rx ry rz
   end
   begin
      id 13
      name Spine_dum1
      direction 0.000000 1.000000 0.000000
      length 10.941760
      axis 0.0 0.0 0.0 xyz
   end
   begin
      id 14
      name Spine_dum2
      direction 0.000000 1.000000 0.000000
      length 10.941760
      axis 0.0 0.0 0.0 xyz
   end
   begin
      id 15
      name Spine_dum3
      direction 0.000000 1.000000 0.000000
      length 16.646042
      axis 0.0 0.0 0.0 xyz
   end
   begin
      id 16
      name RightShoulder
      direction -1.000000 0.000000 0.000000
      length 7.708937
      axis 0.0 0.0 90.0 xyz
      dof rx ry rz
   end
   begin
      id 17
      name RightArm
      direction -1.000000 0.000000 0.000000
      length 11.521345
      axis 0.0 0.0 90.0 xyz
      dof rx ry rz
   end
   begin
      id 18
      name RightForeArm
      direction -1.000000 0.000000 0.000000
      length 10.175898
      axis 0.0 0.0 90.0 xyz
      dof ry rz rx
   end
   begin
      id 19
      name RightHand
      direction -1.000000 0.000000 0.000000
      length 0.000000
      axis 0.0 0.0 90.0 xyz
      dof rx ry rz
   end
   begin
      id 20
      name RightHand_dum1
      direction -1.000000 0.000000 0.000000
      length 3.937000
      axis 0.0 0.0 90.0 xyz
   end
   begin
      id 21
      name RightHand_dum2
      direction 0.000000 0.000000 0.000000
      length 0.000000
      axis 0.0 0.0 90.0 xyz
   end
   begin
      id 22
      name RightHandThumb1
      direction 0.000000 0.000000 1.000000
      length 3.937000
      axis 0.0 0.0 90.0 xyz
      dof rx rz ry
   end
   begin
      id 23
      name LeftShoulder
      direction 1.000000 0.000000 0.000000
      length 7.708937
      axis 0.0 0.0 -90.0 xyz
      dof rx ry rz
   end
   begin
      id 24
      name LeftArm
      direction 1.000000 0.000000 0.000000
      length 11.521345
      axis 0.0 0.0 -90.0 xyz
      dof rx ry rz
   end
   begin
      id 25
      name LeftForeArm
      direction 1.000000 0.000000 0.000000
      length 10.175898
      axis 0.0 0.0 -90.0 xyz
      dof ry rz rx
   end
   begin
      id 26
      name LeftHand
      direction 1.000000 0.000000 0.000000
      length 0.000000
      axis 0.0 0.0 -90.0 xyz
      dof rx ry rz
   end
   begin
      id 27
      name LeftHand_dum1
      direction 1.000000 0.000000 0.000000
      length 3.937000
      axis 0.0 0.0 -90.0 xyz
   end
   begin
      id 28
      name LeftHand_dum2
      direction 0.000000 0.000000 0.000000
      length 0.000000
      axis 0.0 0.0 -90.0 xyz
   end
   begin
      id 29
      name LeftHandThumb1
      direction 0.000000 0.000000 1.000000
      length 3.937000
      axis 0.0 0.0 -90.0 xyz
      dof rx rz ry
   end
   begin
      id 30
      name Head
      direction 0.000000 1.000000 0.000000
      length 4.527550
      axis 0.0 0.0 0.0 xyz
      dof rx ry rz
   end
:hierarchy
   begin
      root RightUpLeg_dum LeftUpLeg_dum Spine_dum
      RightUpLeg_dum RightUpLeg
      LeftUpLeg_dum LeftUpLeg
      Spine_dum Spine
      RightUpLeg RightLeg
      RightLeg RightFoot
      RightFoot RightToeBase
      LeftUpLeg LeftLeg
      LeftLeg LeftFoot
      LeftFoot LeftToeBase
      Spine Spine_dum1 Spine_dum2 Spine_dum3
      Spine_dum1 RightShoulder
      Spine_dum2 LeftShoulder
      Spine_dum3 Head
      RightShoulder RightArm
      RightArm RightForeArm
      RightForeArm RightHand
      RightHand RightHand_dum1 RightHand_dum2
      RightHand_dum2 RightHandThumb1
      LeftShoulder LeftArm
      LeftArm LeftForeArm
      LeftForeArm LeftHand
      LeftHand LeftHand_dum1 LeftHand_dum2
      LeftHand_dum2 LeftHandThumb1
   end

# File created by Blade
# Date/Time:  Thu Jan 22 16:36:26 2015
# Frame Rate: 120.000 fps
#------------------------------------------------------
:FULLY-SPECIFIED
:DEGREES
664
root 3.266853 3.394023 -10.874081 -62.637583 9.378647 -2.909883
RightUpLeg -23.879307 -13.539870 -9.026862
RightLeg -0.535779 -0.000000 0.000000
RightFoot 2.786970 -31.405341 29.019385
RightToeBase 6.987887 -0.000000 -0.000000
LeftUpLeg -94.844451 16.028176 -33.152947
LeftLeg 122.567154 -0.000000 -0.000000
LeftFoot 19.923134 2.986608 -44.967608
LeftToeBase 5.030583 -0.000000 -0.000000
Spine 67.594502 -4.470525 1.728656
RightShoulder 19.653538 -4.405323 -19.550004
RightArm 46.352411 1.430389 67.023698
RightForeArm 47.603360 0.000000 35.221949
RightHand -0.063993 -0.000000 -6.846079
RightHandThumb1 -24.326973 -0.000000 -32.862282
LeftShoulder -6.584917 17.881464 34.501144
LeftArm 75.900875 -19.372416 -40.944015
LeftForeArm 6.230298 -0.000000 85.650901
LeftHand -21.279924 -0.000000 -6.657189
LeftHandThumb1 -26.253704 0.000000 33.147579
Head 13.154947 -3.342911 7.932203
665
root 3.285360 3.396456 -10.884888 -62.836842 9.411527 -3.031167
RightUpLeg -23.963491 -14.309792 -8.748130
RightLeg -0.135742 -0.000000 0.000000
RightFoot 3.004713 -30.667278 28.775855
RightToeBase 6.841412 -0.000000 -0.000000
LeftUpLeg -94.955726 15.890710 -33.191362
LeftLeg 122.683798 -0.000000 -0.000000
LeftFoot 19.931721 2.884810 -45.084980
LeftToeBase 5.237658 -0.000000 -0.000000
Spine 67.744973 -4.518601 1.980450
RightShoulder 19.801404 -4.070818 -19.555350
RightArm 46.851127 1.199220 66.562357
RightForeArm 49.177243 -0.000000 33.365648
RightHand -0.653577 0.000000 -5.377038
RightHandThumb1 -24.326973 -0.000000 -32.862282
LeftShoulder -6.288060 17.333924 35.244482
LeftArm 76.882881 -19.121024 -39.714272
LeftForeArm 5.389955 -0.000000 83.246036
LeftHand -20.592024 -0.000000 -7.834019
LeftHandThumb1 -26.253704 0.000000 33.147579
Head 12.999647 -3.635666 7.890128
666
root 3.295709 3.399458 -10.893781 -63.029748 9.426168 -3.119168
RightUpLeg -23.870075 -14.620150 -8.643218
RightLeg -0.011862 -0.000000 0.000000
RightFoot 3.082262 -30.392886 28.708256
RightToeBase 6.823216 -0.000000 -0.000000
LeftUpLeg -95.101428 15.813493 -33.254047
LeftLeg 122.797247 -0.000000 -0.000000
LeftFoot 20.032600 2.924095 -45.424703
LeftToeBase 4.892865 -0.000000 -0.000000
Spine 67.887517 -4.445106 2.327139
RightShoulder 19.902221 -3.896445 -19.527481
RightArm 47.345417 1.047681 66.110768
RightForeArm 51.521736 -0.000000 31.735936
RightHand -1.369414 -0.000000 -3.755625
RightHandThumb1 -24.326973 -0.000000 -32.862282
LeftShoulder -5.865092 16.587621 36.030342
LeftArm 77.767657 -18.769921 -38.447116
LeftForeArm 4.585238 -0.000000 80.829560
LeftHand -20.217689 -0.000000 -9.143034
LeftHandThumb1 -26.253704 0.000000 33.147579
Head 12.782053 -4.046247 7.938663
667
root 3.306681 3.401197 -10.897093 -63.152771 9.457392 -3.197572
RightUpLeg -23.817958 -14.887604 -8.572796
RightLeg 0.059938 -0.000000 -0.000000
RightFoot 3.106185 -30.126355 28.707440
RightToeBase 6.842570 -0.000000 -0.000000
LeftUpLeg -95.276308 15.715835 -33.295866
LeftLeg 122.876084 -0.000000 -0.000000
LeftFoot 20.169333 2.726090 -45.604706
LeftToeBase 4.872670 -0.000000 -0.000000
Spine 67.936991 -4.546600 2.304024
RightShoulder 20.418151 -3.607375 -19.550407
RightArm 47.646645 0.955240 65.773383
RightForeArm 54.646620 -0.000000 30.425869
RightHand -1.854981 -0.000000 -2.398928
RightHandThumb1 -24.326973 -0.000000 -32.862282
LeftShoulder -5.774916 16.163843 36.576504
LeftArm 78.725126 -18.447564 -37.148574
LeftForeArm 4.025610 -0.000000 78.308938
LeftHand -19.517751 -0.000000 -10.423085
LeftHandThumb1 -26.253704 0.000000 33.147579
Head 12.742147 -4.097108 7.884262
668
root 3.322085 3.405234 -10.903283 -63.321245 9.514595 -3.249227
RightUpLeg -23.660449 -15.013907 -8.616707
RightLeg 0.066815 -0.000000 -0.000000
RightFoot 3.069616 -29.964435 28.843974
RightToeBase 7.103015 -0.000000 -0.000000
LeftUpLeg -95.430405 15.653605 -33.447332
LeftLeg 122.920973 -0.000000 -0.000000
LeftFoot 20.218516 2.823735 -45.785903
LeftToeBase 4.911388 -0.000000 -0.000000
Spine 68.092002 -4.601041 2.301107
RightShoulder 20.805403 -3.308440 -19.561159
RightArm 47.893020 0.737223 65.387469
RightForeArm 59.646185 -0.000000 29.333208
RightHand -1.621411 -0.000000 -1.520821
RightHandThumb1 -24.326973 -0.000000 -32.862282
LeftShoulder -5.659523 15.535984 37.174455
LeftArm 79.603842 -17.957395 -35.926404
LeftForeArm 3.535198 -0.000000 75.848617
LeftHand -18.994510 -0.000000 -11.824740
LeftHandThumb1 -26.253704 0.000000 33.147579
Head 12.530643 -4.259931 7.877178
669
root 3.333595 3.404679 -10.911487 -63.448775 9.585713 -3.293585
RightUpLeg -23.546018 -15.067466 -8.695386
RightLeg 0.081333 -0.000000 -0.000000
RightFoot 3.044773 -29.820973 28.944463
RightToeBase 7.100722 -0.000000 -0.000000
LeftUpLeg -95.560787 15.588247 -33.584030
LeftLeg 122.968001 -0.000000 -0.000000
LeftFoot 20.147419 2.761045 -46.145850
LeftToeBase 5.161767 -0.000000 -0.000000
Spine 68.209805 -4.610959 2.326813
RightShoulder 21.163541 -2.993595 -19.539362
RightArm 47.961954 0.578176 65.207639
RightForeArm 65.235133 -0.000000 28.500724
RightHand -1.062436 0.000000 -0.707526
RightHandThumb1 -24.326973 -0.000000 -32.862282
LeftShoulder -5.558015 15.303465 37.600104
LeftArm 80.839784 -17.847908 -34.683570
LeftForeArm 3.152297 -0.000000 73.255606
LeftHand -18.253035 -0.000000 -12.600598
LeftHandThumb1 -26.253704 0.000000 33.147579
Head 12.289027 -4.435721 7.926286
670
root 3.338340 3.402425 -10.920721 -63.538479 9.615783 -3.322806
RightUpLeg -23.363830 -14.821555 -8.847512
RightLeg -0.063793 -0.000000 0.000000
RightFoot 2.962615 -30.005689 29.126902
RightToeBase 6.955378 -0.000000 -0.000000
LeftUpLeg -95.721248 15.554626 -33.593778
LeftLeg 122.959870 -0.000000 -0.000000
LeftFoot 20.461201 2.473854 -46.312740
LeftToeBase 4.704066 -0.000000 -0.000000
Spine 68.298009 -4.607497 2.400019
RightShoulder 21.498147 -2.652101 -19.632281
RightArm 48.117182 1.037620 66.392417
RightForeArm 68.401730 0.000000 27.428316
RightHand -0.715665 -0.000000 0.914739
RightHandThumb1 -24.326973 -0.000000 -32.862282
LeftShoulder -5.371359 14.923412 38.026155
LeftArm 81.871431 -17.623414 -33.486638
LeftForeArm 2.676656 0.000000 70.809981
LeftHand -17.810050 -0.000000 -13.652363
LeftHandThumb1 -26.253704 0.000000 33.147579
Head 12.027913 -4.558963 7.910874
671
root 3.342862 3.401841 -10.929469 -63.650647 9.669757 -3.348082
RightUpLeg -23.175156 -14.652081 -8.987500
RightLeg -0.171380 -0.000000 0.000000
RightFoot 2.925474 -30.154526 29.195274
RightToeBase 6.805716 -0.000000 -0.000000
LeftUpLeg -95.876831 15.502516 -33.690899
LeftLeg 122.968611 -0.000000 -0.000000
LeftFoot 20.462565 2.513902 -46.521266
LeftToeBase 4.794314 -0.000000 -0.000000
Spine 68.426158 -4.558336 2.437150
RightShoulder 21.768481 -2.367340 -19.590705
RightArm 48.066834 1.055364 66.680248
RightForeArm 70.339759 -0.000000 27.025112
RightHand -0.529302 -0.000000 1.627433
RightHandThumb1 -24.326973 -0.000000 -32.862282
LeftShoulder -5.174605 13.846185 38.730543
LeftArm 82.548726 -16.636535 -32.468763
LeftForeArm 2.345297 -0.000000 68.352194
LeftHand -17.264879 0.000000 -14.538232
LeftHandThumb1 -26.253704 0.000000 33.147579
Head 11.707974 -4.822935 7.991823
672
root 3.345640 3.401944 -10.937834 -63.753839 9.741089 -3.388913
RightUpLeg -23.070340 -14.734736 -9.040511
RightLeg -0.183939 -0.000000 0.000000
RightFoot 3.004782 -30.015607 29.125591
RightToeBase 6.321081 -0.000000 -0.000000
LeftUpLeg -95.956064 15.488720 -33.730029
LeftLeg 122.953474 -0.000000 -0.000000
LeftFoot 20.532149 2.332412 -46.716310
LeftToeBase 4.952484 -0.000000 -0.000000
Spine 68.543895 -4.527786 2.449627
RightShoulder 21.959758 -2.218825 -19.632427
RightArm 48.133512 1.014714 66.795157
RightForeArm 71.914783 0.000000 26.788200
RightHand -0.902080 -0.000000 2.940244
RightHandThumb1 -24.326973 -0.000000 -32.862282
LeftShoulder -4.984873 13.106227 39.291812
LeftArm 83.439005 -15.939976 -31.483486
LeftForeArm 2.271246 -0.000000 65.916563
LeftHand -16.858982 -0.000000 -15.377884
LeftHandThumb1 -26.253704 0.000000 33.147579
Head 11.403394 -5.013141 8.150592
673
root 3.343828 3.397862 -10.948349 -63.834726 9.819268 -3.468533
RightUpLeg -22.998259 -14.864964 -9.073418
RightLeg -0.171033 -0.000000 0.000000
RightFoot 3.060585 -29.856483 29.143157
RightToeBase 6.918880 -0.000000 -0.000000
LeftUpLeg -96.038527 15.427379 -33.747301
LeftLeg 122.969052 -0.000000 -0.000000
LeftFoot 20.325831 2.050313 -46.630832
LeftToeBase 5.629164 -0.000000 -0.000000
Spine 68.640848 -4.531000 2.472540
RightShoulder 22.080038 -2.126725 -19.717940
RightArm 48.204763 0.909226 66.859364
RightForeArm 73.126214 -0.000000 26.801260
RightHand -0.533802 -0.000000 3.489292
RightHandThumb1 -24.326973 -0.000000 -32.862282
LeftShoulder -4.792360 12.450874 39.867929
LeftArm 84.357533 -15.271043 -30.598109
LeftForeArm 2.232472 -0.000000 63.534981
LeftHand -16.470174 0.000000 -16.044821
LeftHandThumb1 -26.253704 0.000000 33.147579
Head 11.052639 -5.150139 8.312784
674
root 3.342301 3.397339 -10.957160 -63.921478 9.895790 -3.523724
RightUpLeg -22.906628 -14.978370 -9.119852
RightLeg -0.174586 -0.000000 0.000000
RightFoot 3.104505 -29.729562 29.179807
RightToeBase 6.888261 -0.000000 -0.000000
LeftUpLeg -96.092725 15.414090 -33.721708
LeftLeg 122.938313 -0.000000 -0.000000
LeftFoot 20.189999 1.437699 -45.839060
LeftToeBase 6.424180 -0.000000 -0.000000
Spine 68.746007 -4.513640 2.479429
RightShoulder 22.155898 -2.081511 -19.785272
RightArm 48.298717 0.872105 67.093907
RightForeArm 74.181231 0.000000 26.964136
RightHand -0.812606 -0.000000 3.918123
RightHandThumb1 -24.326973 -0.000000 -32.862282
LeftShoulder -4.557793 11.633889 40.398544
LeftArm 85.145740 -14.443691 -29.733328
LeftForeArm 2.377669 0.000000 61.266650
LeftHand -16.192678 -0.000000 -16.607892
LeftHandThumb1 -26.253704 0.000000 33.147579
Head 10.722776 -5.266723 8.489607
